<?xml version="1.0" encoding="UTF-8"?>
<svg width="172px" height="25px" viewBox="0 0 172 25" version="1.1" xmlns="http://www.w3.org/2000/svg" xmlns:xlink="http://www.w3.org/1999/xlink">
    <!-- Generator: Sketch 48.1 (47250) - http://www.bohemiancoding.com/sketch -->
    <title>logo</title>
    <desc>Created with Sketch.</desc>
    <defs></defs>
    <g id="Home---Look&amp;Feel" stroke="none" stroke-width="1" fill="none" fill-rule="evenodd" transform="translate(-634.000000, -40.000000)">
        <g id="Cover" fill="#FFFFFF">
            <path d="M655.967329,40.0524882 C655.986831,40.0480142 655.9978,40.0457772 655.9978,40.0457772 L660.783199,40.0457772 L660.783199,64.8942101 L656.543234,64.8942101 L656.543234,45.1188947 L649.269356,64.8942101 L647.391518,64.8942101 L645.51368,64.8942101 L638.240005,45.1188947 L638.240005,64.8942101 L634.000041,64.8942101 L634.000041,40.0457772 L638.825661,40.0457772 C638.825661,40.0457772 638.836427,40.0480142 638.856132,40.0524882 C638.90062,40.0504546 638.944296,40.0457772 638.989393,40.0457772 C640.336016,40.0457772 641.47767,40.9133279 641.894719,42.1194796 C641.921331,42.1792686 641.95038,42.2374307 641.971913,42.3004735 C642.557975,44.0260167 647.391518,57.5432128 647.391518,57.5432128 C647.391518,57.5432128 652.225264,44.0260167 652.811327,42.3004735 C652.832656,42.2374307 652.861909,42.1792686 652.888317,42.1194796 C653.305366,40.9133279 654.487242,40.0457772 655.834068,40.0457772 C655.878963,40.0457772 655.922841,40.050658 655.967329,40.0524882 Z M673.945248,40.0457569 L675.823086,40.0457569 L684.959973,64.8941897 L682.511105,64.8941897 C682.511105,64.8941897 682.500542,64.8917494 682.492416,64.8901224 C682.444069,64.8913426 682.399378,64.8941897 682.347373,64.8941897 C681.00075,64.8941897 679.859096,64.026639 679.442047,62.8204874 C679.415639,62.7606984 679.386387,62.7025363 679.364854,62.6394934 C678.778994,60.9139502 673.945248,47.3967541 673.945248,47.3967541 C673.945248,47.3967541 669.111502,60.9139502 668.525643,62.6394934 C668.50411,62.7025363 668.474858,62.760495 668.448449,62.8204874 C668.0314,64.026639 666.889746,64.8941897 665.543123,64.8941897 C665.495791,64.8941897 665.455569,64.889309 665.411081,64.887072 C665.39097,64.8917494 665.379391,64.8941897 665.379391,64.8941897 L662.920366,64.8941897 L672.067411,40.0457569 L673.945248,40.0457569 Z M699.692691,40.0528339 C699.713005,40.0481566 699.724584,40.0457162 699.724584,40.0457162 L702.183609,40.0457162 L693.036361,64.894149 L691.158727,64.894149 L689.280686,64.894149 L680.144002,40.0457162 L682.592667,40.0457162 C682.592667,40.0457162 682.60323,40.0481566 682.611355,40.0497835 C682.659703,40.0485633 682.704597,40.0457162 682.756398,40.0457162 C684.103022,40.0457162 685.244676,40.9132669 685.661724,42.1194186 C685.688336,42.1794109 685.717588,42.2373697 685.738918,42.3004125 C686.324981,44.0259557 691.158727,57.5431518 691.158727,57.5431518 C691.158727,57.5431518 695.99227,44.0259557 696.578332,42.3004125 C696.599865,42.2373697 696.629117,42.1792076 696.655526,42.1192152 C697.072575,40.9132669 698.214229,40.0457162 699.560852,40.0457162 C699.608184,40.0457162 699.648406,40.0508003 699.692691,40.0528339 Z M704.711254,40.0457569 L708.985753,40.0457569 L720.207275,40.0457569 L720.207275,44.3249414 L708.985753,44.3249414 L708.985753,50.0541111 L717.79416,50.0541111 L717.79416,54.3332956 L708.985753,54.3332956 L708.985753,60.6150052 L720.207275,60.6150052 L720.207275,64.8941897 L708.985753,64.8941897 L704.711254,64.8941897 L704.711254,60.0624653 L704.711254,54.8858355 L704.711254,50.0541111 L704.711254,44.8774813 L704.711254,40.0457569 Z M742.046158,48.5277222 C742.046158,52.8250061 739.317158,55.4160664 736.288932,56.453426 L742.007358,64.9393975 L738.180989,64.9385841 C737.217897,64.9855611 736.067102,64.2772445 735.565546,63.4831082 C735.067037,62.6938526 728.756048,52.700344 728.756048,52.700344 L734.094194,52.700344 C735.059521,52.700344 737.794818,51.2275822 737.794818,48.5277222 C737.794818,45.8278622 735.128386,44.3477792 734.025329,44.3477792 L732.02581,44.3477792 L728.756048,44.3300865 L728.756048,52.700344 L728.756048,56.9795286 L728.756048,64.8942507 L724.481753,64.8942507 L724.481753,40.0458179 L727.808394,40.0458179 L728.756048,40.0458179 L733.584106,40.0458179 C737.222772,40.0458179 742.046158,42.7721152 742.046158,48.5277222 Z M746.320656,64.8941897 L746.320656,40.0457569 L750.595154,40.0457569 L750.595154,64.8941897 L746.320656,64.8941897 Z M775.720923,59.1369762 L775.970584,59.334646 L777.114269,60.239819 C777.019605,60.3596004 776.923113,60.4775515 776.824184,60.5936723 C776.011212,61.547856 775.05787,62.3773776 773.995238,63.0513258 C772.066006,64.2751701 769.780261,64.9863339 767.32733,64.9863339 C760.434951,64.9863339 754.847754,59.3930114 754.847754,52.4932788 C754.847754,45.5933428 760.434951,40.0000203 767.32733,40.0000203 C770.088426,40.0000203 772.638864,40.8994991 774.705827,42.4192381 C775.497468,43.0012657 776.217197,43.6748072 776.850998,44.4237967 C776.951147,44.5421545 777.048248,44.662546 777.143928,44.7845643 L776.247466,45.4886104 L775.86881,45.7859285 L775.863935,45.7859285 C774.848838,46.5762009 773.446148,46.6268385 772.3825,45.9347909 C772.380672,45.9337741 772.378437,45.9333674 772.376609,45.9321472 C772.374171,45.9303169 772.370515,45.9280799 772.367874,45.9262496 C772.364624,45.9240126 772.361373,45.9217756 772.35792,45.9195386 C772.121464,45.7584744 771.500461,45.3625247 771.323119,45.2494544 C770.141649,44.5889282 768.776946,44.2188058 767.32733,44.2188058 C762.76234,44.2188058 759.061919,47.9232838 759.061919,52.4932788 C759.061919,57.0630705 762.76234,60.7677518 767.32733,60.7677518 C768.772071,60.7677518 770.125804,60.3890881 771.309508,59.7409672 C771.413719,59.6758907 771.776936,59.4473096 772.290883,59.1121658 C772.306728,59.1011841 772.323183,59.0912193 772.339231,59.0806444 C772.370108,59.0605113 772.398751,59.0418019 772.431863,59.0216688 C772.431863,59.0216688 772.43166,59.0230924 772.433082,59.0234991 C772.887509,58.7477376 773.418927,58.5860632 773.989347,58.5860632 C774.634524,58.5860632 775.230947,58.7910541 775.720923,59.1369762 Z M781.418385,64.9545888 L781.418385,40.0187095 L786.261679,40.0187095 L786.261679,64.9545888 L781.418385,64.9545888 Z M799.835618,40.1428428 L791.460307,52.5714316 L799.835618,65.0000203 L796.034236,64.9990035 C796.034236,64.9990035 795.87802,65.0067313 795.633438,64.9729729 L795.631,64.9727696 C795.560104,64.9628047 795.480473,64.9481625 795.396372,64.9300631 C795.364073,64.9231487 795.331976,64.9162344 795.29988,64.9083032 C795.231015,64.8912206 795.159916,64.8716977 795.085769,64.8477007 C795.048594,64.8357022 795.012435,64.8214668 794.97587,64.8080447 C794.928132,64.7907588 794.879987,64.7722527 794.830827,64.7517129 C794.798324,64.7378842 794.766025,64.7236487 794.733929,64.7088031 C794.675018,64.6815524 794.6157,64.6512511 794.555977,64.6189163 C794.536678,64.6083413 794.516974,64.5985799 794.497878,64.5875982 C794.117192,64.3708122 793.72777,64.0423794 793.409448,63.5384435 C792.433151,61.9924706 786.289956,52.5077787 786.289956,52.5077787 C786.289956,52.5077787 792.433151,43.1501892 793.409448,41.6042163 C793.72777,41.1004838 794.117192,40.7718476 794.497878,40.5550616 C794.516974,40.5440799 794.536678,40.5343185 794.555977,40.5237435 C794.615904,40.4914087 794.675221,40.4611074 794.733929,40.43406 C794.766025,40.4190111 794.798324,40.404979 794.830624,40.3911502 C794.879987,40.3706105 794.927928,40.351901 794.97587,40.3346151 C795.012435,40.321193 795.048798,40.3069576 795.085972,40.2949591 C795.160119,40.2709621 795.231218,40.2514392 795.300083,40.2343566 C795.331976,40.2264254 795.364073,40.2197144 795.396169,40.2128 C795.480473,40.1944973 795.560104,40.1798551 795.631,40.1698902 L795.634454,40.1694835 C795.87802,40.1359285 796.034236,40.1436563 796.034236,40.1436563 L799.835618,40.1428428 Z M804.009866,62.786851 C804.313359,62.786851 804.483185,62.6290405 804.483185,62.3980191 C804.483185,62.1430006 804.30117,62.0215924 804.009866,62.0215924 L803.439648,62.0215924 L803.439648,62.786851 L804.009866,62.786851 Z M803.099793,61.7177666 L804.046228,61.7177666 C804.483185,61.7177666 804.835026,61.9485847 804.835026,62.3738187 C804.835026,62.7260451 804.60446,62.9326629 804.313359,63.0176691 L804.907953,63.8437335 L804.483185,63.8437335 L803.949127,63.0662731 L803.439648,63.0662731 L803.439648,63.8437335 L803.099793,63.8437335 L803.099793,61.7177666 Z M805.75749,62.8232531 L805.75749,62.8110513 C805.75749,61.7785724 804.956504,60.9281043 803.888591,60.9281043 C802.832865,60.9281043 802.019691,61.7907743 802.019691,62.8232531 L802.019691,62.835455 C802.019691,63.8681372 802.820677,64.7184019 803.888591,64.7184019 C804.944316,64.7184019 805.75749,63.8559353 805.75749,62.8232531 Z M801.77714,62.835455 L801.77714,62.8232531 C801.77714,61.6691626 802.711387,60.6972862 803.888591,60.6972862 C805.077779,60.6972862 806.000041,61.6569608 806.000041,62.8110513 L806.000041,62.8232531 C806.000041,63.9773436 805.065794,64.94922 803.888591,64.94922 C802.699402,64.94922 801.77714,63.9895455 801.77714,62.835455 Z" id="logo"></path>
        </g>
    </g>
</svg>