<?xml version="1.0" encoding="UTF-8"?>
<svg width="182px" height="98px" viewBox="0 0 182 98" version="1.1" xmlns="http://www.w3.org/2000/svg" xmlns:xlink="http://www.w3.org/1999/xlink">
    <!-- Generator: Sketch 48.1 (47250) - http://www.bohemiancoding.com/sketch -->
    <title>socialmedia</title>
    <desc>Created with Sketch.</desc>
    <defs></defs>
    <g id="Home---Look&amp;Feel" stroke="none" stroke-width="1" fill="none" fill-rule="evenodd" transform="translate(-1029.000000, -911.000000)">
        <g id="What-we-do" transform="translate(132.000000, 911.000000)">
            <g id="Social-Media" transform="translate(848.000000, 0.000000)">
                <g id="socialmedia+" transform="translate(49.000000, 0.000000)">
                    <path d="M1.41004763,4.30588692 C11.2261343,-16.0114044 88.2049193,43.7399288 107.103353,15.3678464 C127.406573,-15.1133254 189.842921,77.213146 181.180849,95.1421523 C172.673187,112.75241 -18.1791695,44.8520576 1.41004763,4.30588692" id="Fill-1-Copy" fill="#33D5AE" fill-rule="evenodd" opacity="0.119999997"></path>
                    <path d="M83.3697894,73.7847443 L95.8206362,51.9985507 L83.3697894,30.212357 L58.4537216,30.212357 L46,51.9985507 L58.4537216,73.787643 L83.3697894,73.787643 L83.3697894,73.7847443 Z M89.1855509,51.9985507 L80.0464971,67.9903589 L73.7851384,67.9903589 L73.7851384,36.0096411 L80.0464971,36.0096411 L89.1855509,51.9985507 Z M61.7770139,36.0096411 L68.0354978,36.0096411 L68.0354978,67.9874602 L61.7770139,67.9874602 L52.6379601,51.9985507 L61.7770139,36.0096411 Z M125.546278,98 L138,76.2109077 L125.546278,54.4247141 L100.630211,54.4247141 L88.1793638,76.2109077 L100.630211,98 L125.546278,98 Z M131.36204,76.2109077 L122.220111,92.2027159 L115.961627,92.2027159 L115.961627,60.2248968 L122.220111,60.2248968 L131.36204,76.2109077 Z M103.953503,60.2248968 L110.214862,60.2248968 L110.214862,92.2027159 L103.953503,92.2027159 L94.8144491,76.2109077 L103.953503,60.2248968 Z M125.546278,6 L100.630211,6 L88.1793638,27.7861936 L100.630211,49.5752859 L125.546278,49.5752859 L138,27.7861936 L125.546278,6 Z M94.8144491,27.783295 L103.953503,11.7943855 L110.214862,11.7943855 L110.214862,43.7722045 L103.953503,43.7722045 L94.8144491,27.783295 Z M122.222986,43.7751032 L115.964502,43.7751032 L115.964502,11.7972841 L122.222986,11.7972841 L131.364915,27.7861936 L122.222986,43.7751032 Z" id="Shape" fill="#000000" fill-rule="nonzero"></path>
                </g>
            </g>
        </g>
    </g>
</svg>